<svg width="154" height="58" viewBox="0 0 154 58" fill="none" xmlns="http://www.w3.org/2000/svg">
<g clip-path="url(#clip0_106_594)">
<path d="M13.8629 57.1185C12.0386 57.7221 10.1271 58.0199 8.20558 58C2.42 58 0 55.5159 0 52.1984C0 48.8809 2.42 46.3968 8.20558 46.3968C10.1282 46.3791 12.0402 46.6824 13.8629 47.2943L13.3821 49.1373C11.7074 48.6049 9.96283 48.3241 8.20558 48.3039C3.78226 48.3039 2.08345 49.9066 2.08345 52.1984C2.08345 54.4902 3.78226 56.0768 8.20558 56.0768C9.96051 56.0582 11.7037 55.7883 13.3821 55.2755L13.8629 57.1185Z" fill="#231F20"/>
<path d="M22.5654 46.3968C27.4855 46.3968 30.0497 48.8969 30.0497 52.1984C30.0497 55.4998 27.4855 58 22.5654 58C17.6452 58 15.097 55.5159 15.097 52.1984C15.097 48.8809 17.6612 46.3968 22.5654 46.3968ZM22.5654 56.0127C26.2354 56.0127 27.9503 54.41 27.9503 52.1343C27.9503 49.8585 26.2354 48.2398 22.5654 48.2398C18.8953 48.2398 17.1804 49.8425 17.1804 52.1343C17.1804 54.4261 18.9113 56.0768 22.5654 56.0768V56.0127Z" fill="#231F20"/>
<path d="M31.7646 57.7596V46.6372H37.2136C42.9992 46.6372 45.4192 48.8969 45.4192 52.1984C45.4192 55.4998 42.9992 57.7596 37.2136 57.7596H31.7646ZM33.816 48.5443V55.8364H37.2136C41.6369 55.8364 43.3197 54.4581 43.3197 52.1984C43.3197 49.9386 41.6369 48.5443 37.2136 48.5443H33.816Z" fill="#231F20"/>
<path d="M47.134 57.7596V46.6372H59.202V48.5443H49.1854V51.0926H58.2404V52.9997H49.1854V55.8364H59.5065V57.7596H47.134Z" fill="#231F20"/>
<path d="M89.0754 53.16V51.2368H96.5117V52.5029C96.5117 56.6057 93.1462 57.968 89.0754 57.968C84.1713 57.968 81.6872 55.4838 81.6872 52.1664C81.6872 48.8489 84.0591 46.3647 89.7005 46.3647C91.5853 46.3614 93.4581 46.6645 95.2456 47.2622L94.7809 49.0732C93.1374 48.552 91.4246 48.2818 89.7005 48.2719C85.3733 48.2719 83.7065 49.8746 83.7065 52.1664C83.7065 54.4581 85.5015 56.0448 89.0594 56.0448C92.6173 56.0448 94.4924 54.9069 94.4924 53.192L89.0754 53.16Z" fill="#231F20"/>
<path d="M98.3548 57.7596V46.6372H110.182V48.5443H100.358V51.0926H109.237V52.9997H100.358V55.8364H110.487V57.7596H98.3548Z" fill="#231F20"/>
<path d="M112.17 57.7596V46.6372H123.997V48.5443H114.173V51.0926H123.052V52.9997H114.173V55.8364H124.302V57.7596H112.17Z" fill="#231F20"/>
<path d="M139.527 57.7596H136.434L129.927 52.9516H127.988V57.7596H125.984V46.6372H127.988V51.0926H129.959L136.209 46.6372H139.158L135.216 49.4258L131.45 52.0381L135.648 54.987L139.527 57.7596Z" fill="#231F20"/>
<path d="M140.424 56.9262L140.969 55.0992C143.009 55.7586 145.14 56.0939 147.284 56.0928C148.309 56.0928 151.322 55.9646 151.322 54.4902C151.322 53.4965 149.96 53.4164 147.316 53.2722C144.111 53.0959 140.809 52.9036 140.809 49.9226C140.809 46.9417 144.207 46.3968 146.851 46.3968C148.761 46.4188 150.663 46.6445 152.524 47.0699L152.108 48.945C150.279 48.5202 148.408 48.3051 146.531 48.3039C145.745 48.3039 142.86 48.3841 142.86 49.9066C142.86 51.4291 145.088 51.2849 147.412 51.381C150.473 51.5093 153.374 51.8138 153.374 54.4742C153.374 57.5032 149.656 58.0801 146.963 58.0801C144.735 58.054 142.527 57.6642 140.424 56.9262Z" fill="#231F20"/>
<path d="M64.9876 49.9226H67.3114V50.9003H64.9876V54.9069C64.9876 56.0287 65.3241 56.5095 66.1896 56.5095C66.5665 56.4986 66.9418 56.4557 67.3114 56.3813V57.3109C66.8456 57.4351 66.3669 57.505 65.885 57.5192C64.635 57.5192 63.8657 56.8942 63.8657 54.9389V50.9003H62.9041V49.9707H63.8657V48.0155L64.9876 47.9033V49.9226Z" fill="#231F20"/>
<path d="M73.3855 49.7143C76.5908 49.7143 78.4018 51.3169 78.4018 53.5767C78.4018 55.8364 76.6228 57.4391 73.3855 57.4391C70.1481 57.4391 68.3692 55.8364 68.3692 53.5767C68.3692 51.3169 70.1481 49.7143 73.3855 49.7143ZM73.3855 56.3974C75.9337 56.3974 77.2639 55.1954 77.2639 53.5767C77.2639 51.958 75.9337 50.74 73.3855 50.74C70.8373 50.74 69.5071 51.9259 69.5071 53.5767C69.5071 55.2274 70.8533 56.3974 73.3855 56.3974Z" fill="#231F20"/>
<path d="M52.1824 40.6272L22.8538 20.3056L52.1824 0V11.8596L39.9862 20.3056L52.1824 28.7676V40.6272Z" fill="#231F20"/>
<path d="M97.1688 0L68.1127 40.6272H56.2371L85.197 0H97.1688Z" fill="#231F20"/>
<path d="M101.224 28.7676L113.452 20.3056L101.224 11.8596V0L130.52 20.3056L101.224 40.6272V28.7676Z" fill="#231F20"/>
</g>
<defs>
<clipPath id="clip0_106_594">
<rect width="153.374" height="58" fill="white"/>
</clipPath>
</defs>
</svg>
